<?xml version="1.0" standalone="no"?>
<!DOCTYPE svg PUBLIC "-//W3C//DTD SVG 20010904//EN"
 "http://www.w3.org/TR/2001/REC-SVG-20010904/DTD/svg10.dtd">
<svg version="1.0" xmlns="http://www.w3.org/2000/svg"
 width="1000.000000pt" height="1000.000000pt" viewBox="0 0 1000.000000 1000.000000"
 preserveAspectRatio="xMidYMid meet">

<g transform="translate(0.000000,1000.000000) scale(0.100000,-0.100000)"
fill="#000000" stroke="none">
<path d="M2040 9440 c-183 -26 -333 -155 -384 -329 -14 -47 -16 -142 -16 -717
l0 -662 -52 -17 c-277 -90 -458 -323 -475 -610 -7 -120 14 -214 73 -335 169
-342 595 -469 934 -277 82 46 209 178 252 262 61 118 81 209 76 345 -7 186
-63 315 -193 445 -80 79 -152 125 -252 160 l-68 24 -2 648 -3 648 23 39 c12
22 38 49 57 60 l35 21 2562 5 2562 5 27 21 c47 34 66 68 66 116 1 57 -25 105
-72 133 -35 20 -39 20 -2565 21 -1392 1 -2555 -2 -2585 -6z m-105 -2024 c79
-35 156 -112 192 -190 25 -54 28 -72 27 -156 0 -80 -4 -104 -26 -150 -72 -156
-246 -250 -406 -220 -163 30 -282 150 -313 314 -33 178 83 363 264 422 68 22
190 13 262 -20z"/>
<path d="M3473 8630 c-67 -40 -68 -46 -71 -436 l-4 -352 -56 -6 c-206 -24
-386 -146 -469 -317 -67 -138 -63 -9 -63 -2204 0 -2195 -4 -2066 63 -2204 44
-90 148 -198 235 -244 76 -40 150 -63 235 -73 43 -5 57 -10 57 -23 0 -9 1
-167 2 -351 3 -301 5 -338 21 -368 51 -93 194 -96 254 -5 16 25 18 60 21 385
l3 358 224 0 225 0 0 -351 c0 -391 1 -400 67 -440 47 -29 131 -23 169 12 54
50 54 51 54 429 l0 350 225 0 225 0 0 -352 c0 -335 1 -355 20 -386 43 -71 141
-94 207 -49 62 42 63 48 63 436 l0 351 225 0 224 0 3 -358 c3 -325 5 -360 21
-385 60 -91 203 -88 254 5 16 30 18 67 20 378 1 190 2 348 3 353 0 4 99 7 220
7 l220 0 1 -292 c0 -329 5 -410 26 -451 45 -88 192 -89 250 0 16 25 18 60 21
384 l3 357 67 7 c203 21 376 141 461 318 22 45 45 109 51 142 8 43 10 627 8
2095 l-3 2035 -21 55 c-51 132 -113 217 -209 286 -84 59 -162 90 -268 105
l-86 12 -3 356 c-3 324 -5 359 -21 384 -60 91 -203 88 -254 -5 -16 -30 -18
-69 -21 -385 l-3 -353 -219 0 -220 0 -2 273 c-2 391 -4 429 -22 466 -52 99
-207 93 -258 -9 -16 -31 -18 -72 -18 -382 l0 -348 -225 0 -225 0 0 351 c0 391
-1 400 -67 440 -47 29 -131 23 -169 -12 -54 -50 -54 -51 -54 -429 l0 -350
-225 0 -225 0 0 353 c0 334 -1 354 -20 385 -59 97 -208 96 -254 -2 -14 -29
-16 -83 -16 -385 l0 -351 -225 0 -225 0 0 348 c0 387 -1 394 -69 439 -43 29
-113 31 -158 3z m357 -1474 l0 -384 -65 -30 c-264 -124 -357 -460 -197 -708
165 -256 532 -292 749 -75 154 153 187 376 86 576 -37 72 -135 165 -215 205
l-68 33 0 383 0 384 1318 0 1317 0 50 -24 c28 -12 67 -42 88 -66 71 -78 72
-83 72 -385 l0 -270 -550 -5 c-428 -4 -555 -8 -573 -18 -65 -37 -84 -154 -35
-213 51 -60 41 -59 628 -59 l535 0 0 -1135 0 -1135 -544 0 -543 0 -33 -23
c-51 -34 -73 -70 -73 -119 0 -55 24 -101 66 -127 34 -21 43 -21 581 -21 l547
0 -3 -322 c-3 -360 -3 -359 -75 -438 -21 -24 -60 -54 -88 -66 l-50 -24 -1317
0 -1318 0 1 438 0 437 71 34 c245 117 339 413 211 666 -14 27 -53 77 -87 111
-237 237 -628 171 -778 -132 -38 -77 -41 -91 -46 -183 -4 -81 -1 -111 16 -168
44 -144 155 -267 285 -314 l37 -13 0 -438 0 -438 -257 0 c-229 0 -263 3 -299
19 -59 27 -109 75 -138 133 l-26 52 0 963 0 963 1194 0 1194 0 31 -65 c17 -38
54 -90 86 -124 164 -172 427 -201 625 -69 284 189 284 617 0 806 -199 133
-465 103 -627 -72 -31 -33 -69 -89 -86 -123 l-29 -63 -1194 0 -1194 0 0 913 0
913 26 52 c29 58 79 106 138 133 36 16 70 19 299 19 l257 0 0 -384z m250 -690
c127 -84 113 -275 -25 -337 -163 -74 -331 93 -256 256 10 22 30 51 44 63 61
56 167 64 237 18z m1963 -919 c45 -19 105 -89 113 -132 24 -131 -60 -239 -186
-240 -75 0 -126 28 -165 90 -42 68 -42 146 0 207 53 76 157 108 238 75z
m-1976 -944 c55 -29 93 -87 99 -154 16 -167 -188 -276 -313 -166 -95 84 -95
229 0 301 66 50 141 57 214 19z"/>
<path d="M7730 8496 c-252 -54 -438 -219 -517 -461 -21 -66 -26 -99 -26 -190
-2 -203 54 -337 198 -480 93 -92 181 -147 282 -174 l43 -12 2 -1812 c3 -1794
3 -1812 23 -1839 11 -15 34 -35 51 -44 44 -24 126 -15 160 17 58 54 54 -74 54
1878 l0 1799 53 17 c169 56 321 184 395 335 54 111 75 194 74 305 0 193 -58
331 -197 470 -97 98 -182 149 -300 180 -85 22 -217 27 -295 11z m282 -318 c79
-37 142 -98 181 -177 30 -61 32 -73 32 -166 0 -90 -3 -106 -29 -160 -17 -33
-50 -80 -76 -105 -25 -26 -72 -59 -105 -76 -54 -26 -70 -29 -160 -29 -87 0
-107 3 -157 27 -79 37 -142 98 -181 177 -30 61 -32 72 -32 171 0 96 3 110 28
160 46 90 126 161 217 194 71 26 210 18 282 -16z"/>
<path d="M8882 6389 c-151 -20 -276 -82 -388 -194 -133 -132 -194 -280 -194
-470 0 -122 16 -192 72 -305 32 -67 58 -102 122 -166 87 -87 159 -132 261
-165 l65 -22 0 -1655 0 -1656 -21 -43 c-14 -29 -35 -52 -63 -68 l-43 -25
-3077 0 c-3045 0 -3077 0 -3116 20 -21 11 -49 34 -62 52 l-23 33 -5 2237 -5
2237 -21 27 c-37 50 -72 69 -124 69 -52 0 -87 -19 -124 -69 l-21 -27 -3 -2202
c-2 -1514 1 -2224 8 -2272 27 -177 152 -323 321 -376 59 -19 146 -19 3174 -19
3091 0 3113 0 3178 20 135 42 248 156 297 299 20 60 20 74 20 1739 l0 1678 68
22 c227 73 398 269 448 512 38 190 -19 409 -147 559 -144 169 -379 260 -597
230z m240 -321 c161 -74 249 -249 213 -422 -24 -116 -95 -207 -205 -263 -50
-25 -65 -28 -160 -28 -99 0 -109 2 -172 33 -206 101 -272 364 -139 554 42 61
109 111 183 139 77 28 202 22 280 -13z"/>
<path d="M895 6095 c-204 -44 -368 -172 -461 -360 -80 -163 -94 -338 -38 -503
38 -114 78 -178 168 -267 85 -84 167 -135 266 -166 l55 -17 5 -1938 5 -1939
23 -54 c59 -140 164 -234 307 -278 58 -17 188 -18 3250 -18 l3190 0 36 23 c98
60 90 205 -14 252 -41 19 -108 20 -3211 20 l-3169 0 -43 25 c-28 16 -49 39
-63 68 l-21 43 2 1898 3 1898 75 27 c190 67 338 217 407 413 34 96 43 268 19
372 -82 349 -443 577 -791 501z m206 -285 c119 -23 224 -105 277 -218 23 -49
27 -70 27 -152 0 -84 -3 -103 -29 -157 -56 -121 -180 -209 -314 -220 -291 -24
-496 279 -367 544 49 99 134 167 248 198 64 17 89 18 158 5z"/>
<path d="M222 2348 c-5 -7 -12 -22 -14 -33 -4 -18 -6 -17 -18 8 -14 30 -33 38
-23 10 11 -31 46 -63 69 -63 23 0 54 24 54 41 0 39 -46 64 -68 37z m43 -34 c0
-10 -8 -20 -17 -22 -18 -3 -26 27 -11 42 12 11 28 0 28 -20z"/>
<path d="M226 2241 c-3 -4 -17 -6 -30 -4 -20 4 -26 0 -31 -20 -7 -26 0 -47 14
-47 5 0 6 11 3 25 -3 18 0 25 12 25 9 0 16 -7 16 -15 0 -22 17 -18 23 6 8 29
32 18 32 -14 -1 -30 12 -36 22 -11 14 37 -41 87 -61 55z"/>
<path d="M160 2132 c0 -5 7 -17 15 -28 13 -17 14 -17 15 -1 0 14 9 17 50 17
28 0 50 5 50 10 0 6 -28 10 -65 10 -36 0 -65 -4 -65 -8z"/>
<path d="M160 2051 c0 -22 5 -43 10 -46 6 -4 10 7 10 25 0 28 2 31 23 24 12
-3 34 -13 49 -20 31 -16 38 -17 38 -5 0 7 -108 61 -124 61 -3 0 -6 -18 -6 -39z"/>
<path d="M177 1972 c-22 -24 -21 -35 1 -55 25 -22 75 -21 95 1 23 25 21 38 -5
56 -30 21 -71 20 -91 -2z m77 -8 c24 -9 19 -33 -8 -40 -31 -7 -66 3 -66 21 0
21 41 32 74 19z"/>
<path d="M176 1864 c-19 -18 -20 -28 -6 -55 19 -35 70 -17 70 26 1 18 3 17 18
-7 17 -29 32 -36 32 -17 0 18 -57 69 -79 69 -11 0 -27 -7 -35 -16z m42 -26
c-2 -12 -9 -23 -15 -26 -19 -6 -29 28 -12 39 23 14 31 10 27 -13z"/>
<path d="M226 1761 c-3 -4 -17 -6 -30 -4 -20 4 -26 0 -31 -20 -7 -26 0 -47 14
-47 5 0 6 11 3 25 -3 18 0 25 12 25 9 0 16 -7 16 -15 0 -22 17 -18 23 6 8 29
32 18 32 -14 -1 -30 12 -36 22 -11 14 37 -41 87 -61 55z"/>
<path d="M177 1652 c-22 -24 -21 -35 1 -55 25 -22 75 -21 95 1 23 25 21 38 -5
56 -30 21 -71 20 -91 -2z m77 -8 c24 -9 19 -33 -8 -40 -31 -7 -66 3 -66 21 0
21 41 32 74 19z"/>
<path d="M222 1548 c-5 -7 -12 -22 -14 -33 -4 -18 -6 -17 -18 8 -14 30 -33 38
-23 10 11 -31 46 -63 69 -63 23 0 54 24 54 41 0 39 -46 64 -68 37z m43 -34 c0
-10 -8 -20 -17 -22 -18 -3 -26 27 -11 42 12 11 28 0 28 -20z"/>
<path d="M196 1451 c-4 -6 -12 -9 -17 -6 -5 4 -9 2 -9 -4 0 -5 6 -12 13 -15 9
-5 9 -7 0 -12 -10 -4 -9 -9 2 -20 8 -9 20 -12 26 -8 6 3 14 1 18 -5 5 -8 15
-9 31 -3 19 7 21 10 7 15 -23 9 -22 28 1 20 12 -4 11 0 -7 17 -17 17 -25 20
-31 10 -6 -9 -10 -8 -17 5 -7 12 -12 14 -17 6z m39 -41 c-3 -5 -10 -10 -16
-10 -5 0 -9 5 -9 10 0 6 7 10 16 10 8 0 12 -4 9 -10z"/>
<path d="M140 1280 c0 -6 38 -10 95 -10 57 0 95 4 95 10 0 6 -38 10 -95 10
-57 0 -95 -4 -95 -10z"/>
<path d="M261 1189 c-22 -18 -25 -19 -42 -3 -11 10 -22 14 -27 10 -4 -4 4 -16
17 -27 l23 -19 -46 0 c-34 0 -46 -4 -46 -15 0 -12 15 -15 75 -15 60 0 75 3 75
15 0 9 -9 15 -22 15 l-23 0 24 19 c13 10 22 23 20 29 -2 6 -14 3 -28 -9z"/>
<path d="M190 1081 c0 -27 27 -51 55 -51 24 0 45 25 45 54 0 25 -18 19 -22 -6
-2 -17 -10 -23 -28 -23 -18 0 -26 6 -28 23 -4 27 -22 30 -22 3z"/>
<path d="M206 994 c-19 -18 -20 -28 -6 -55 21 -39 90 -16 90 30 0 16 -30 41
-50 41 -10 0 -26 -7 -34 -16z m59 -29 c0 -22 -31 -33 -47 -17 -17 17 -1 44 24
40 15 -2 23 -10 23 -23z"/>
<path d="M190 900 c0 -5 -7 -10 -15 -10 -8 0 -15 -4 -15 -10 0 -5 6 -10 14
-10 8 0 17 -6 20 -12 5 -10 7 -10 12 0 3 6 21 12 40 12 34 0 56 22 39 38 -4 4
-10 1 -12 -5 -5 -15 -63 -18 -63 -3 0 6 -4 10 -10 10 -5 0 -10 -4 -10 -10z"/>
<path d="M212 810 c-19 -34 -35 -34 -40 -2 -5 30 -22 28 -22 -2 0 -50 54 -61
77 -16 17 34 38 32 38 -3 -1 -32 18 -31 23 2 8 53 -49 69 -76 21z"/>
<path d="M200 675 c-22 -26 3 -65 40 -65 35 0 58 36 45 67 -7 16 -9 15 -13 -7
-6 -40 -22 -48 -22 -12 0 25 -4 32 -19 32 -10 0 -24 -7 -31 -15z m30 -26 c0
-11 -4 -17 -10 -14 -5 3 -10 13 -10 21 0 8 5 14 10 14 6 0 10 -9 10 -21z"/>
<path d="M197 561 c-8 -22 -18 -31 -34 -31 -14 0 -23 -6 -23 -15 0 -23 138
-22 147 2 10 26 -19 68 -50 71 -24 3 -30 -2 -40 -27z m57 3 c28 -11 18 -34
-14 -34 -18 0 -30 5 -30 13 0 25 15 32 44 21z"/>
<path d="M206 464 c-19 -18 -20 -28 -6 -55 21 -39 90 -16 90 30 0 16 -30 41
-50 41 -10 0 -26 -7 -34 -16z m59 -29 c0 -22 -31 -33 -47 -17 -17 17 -1 44 24
40 15 -2 23 -10 23 -23z"/>
<path d="M140 350 c0 -5 11 -10 25 -10 15 0 25 -6 25 -14 0 -45 73 -62 92 -22
20 45 6 56 -72 56 -40 0 -70 -4 -70 -10z m128 -27 c-2 -12 -12 -18 -28 -18
-16 0 -26 6 -28 18 -3 13 3 17 28 17 25 0 31 -4 28 -17z"/>
<path d="M220 246 c-36 -13 -66 -29 -68 -37 -1 -9 20 -21 68 -35 38 -12 70
-17 70 -12 0 6 -9 12 -20 15 -14 4 -20 14 -20 34 0 22 5 29 20 29 11 0 20 7
20 15 0 8 -1 15 -2 14 -2 0 -32 -11 -68 -23z m8 -51 c-7 -7 -48 7 -48 15 0 15
45 16 48 2 2 -8 2 -15 0 -17z"/>
</g>
</svg>
